<svg version="1.1" id="Layer_1" xmlns="http://www.w3.org/2000/svg" xmlns:xlink="http://www.w3.org/1999/xlink" x="0px" y="0px"
	 width="100%" viewBox="0 0 512 512" enable-background="new 0 0 512 512" xml:space="preserve">
<path fill="#010101" opacity="0.000000" stroke="none" 
	d="
M289.000000,513.000000 
	C194.023056,513.000000 99.546089,512.979797 5.069258,513.085022 
	C1.797727,513.088684 0.894631,512.637024 0.897137,509.071045 
	C1.015201,341.112091 1.016827,173.153061 0.891855,5.194152 
	C0.889060,1.437581 1.847740,0.913409 5.303903,0.915402 
	C173.096252,1.012141 340.888641,1.011510 508.681000,0.918862 
	C512.096252,0.916976 513.114075,1.380663 513.111145,5.179031 
	C512.982483,173.137955 512.985168,341.096985 513.101135,509.055939 
	C513.103577,512.591003 512.249939,513.093079 508.945801,513.087891 
	C435.797333,512.972900 362.648651,513.000000 289.000000,513.000000 
z"/>
<path fill="#F4F5F6" opacity="1.000000" stroke="none" 
	d="
M182.000000,458.001160 
	C141.169662,458.001160 100.839104,457.944214 60.509335,458.095673 
	C56.778595,458.109680 55.899807,457.231171 55.903530,453.493225 
	C56.016186,340.501740 56.013275,227.510071 55.916313,114.518532 
	C55.913101,110.778572 56.629406,109.556709 60.693455,109.563553 
	C141.853867,109.700089 223.014587,109.688568 304.175110,109.590851 
	C307.856812,109.586426 309.197571,110.214157 309.174225,114.341133 
	C308.981873,148.337524 309.013702,182.335663 309.145508,216.332642 
	C309.158691,219.738541 308.475739,221.002701 304.815216,221.640274 
	C266.973450,228.231277 240.911804,249.540466 226.679337,285.190094 
	C225.553375,288.010468 223.947479,288.298645 221.425461,288.291260 
	C198.427368,288.223755 175.429001,288.250244 152.430710,288.254150 
	C150.437057,288.254486 148.428223,288.099121 146.514893,288.905792 
	C143.366379,290.233215 141.791702,292.676147 142.143448,295.987274 
	C142.490387,299.253174 144.387314,301.532257 147.798080,302.055939 
	C149.431885,302.306793 151.121307,302.240387 152.785553,302.241211 
	C173.950653,302.251526 195.116470,302.338715 216.280197,302.168152 
	C220.306244,302.135681 221.961243,302.390472 221.230804,307.356720 
	C219.122757,321.689026 220.636169,335.879791 225.230865,350.126892 
	C212.095444,350.126892 199.448135,350.126740 186.800827,350.126953 
	C174.635056,350.127167 162.469269,350.142395 150.303543,350.119354 
	C146.617783,350.112366 143.750214,351.431671 142.445389,355.043488 
	C141.355087,358.061493 142.436798,360.587616 144.758499,362.642059 
	C146.693710,364.354462 149.080292,364.122375 151.403763,364.122559 
	C176.568558,364.124603 201.733490,364.160309 226.897980,364.071808 
	C229.648788,364.062134 231.330307,364.676239 232.812927,367.285370 
	C248.773056,395.372101 272.797089,412.118896 304.630280,417.467590 
	C308.061157,418.044067 309.281982,418.854279 309.172119,422.553772 
	C308.865570,432.877228 308.856323,443.222168 309.173340,453.545013 
	C309.292419,457.422424 308.100861,458.098816 304.489807,458.086792 
	C263.826874,457.951508 223.163361,458.001160 182.000000,458.001160 
z"/>
<path fill="#C7AA96" opacity="1.000000" stroke="none" 
	d="
M341.047791,466.997284 
	C341.040924,471.996368 341.165009,476.501129 340.993073,480.994598 
	C340.791260,486.269257 337.413849,489.595276 332.161041,489.968018 
	C330.834076,490.062195 329.495575,489.998871 328.162354,489.998871 
	C231.165802,489.999725 134.169266,490.000031 37.172718,489.999146 
	C26.414682,489.999054 24.000921,487.571320 24.000866,476.753937 
	C24.000214,348.091858 24.000231,219.429779 24.000870,90.767693 
	C24.000923,80.073067 26.422382,77.685303 37.289806,77.682701 
	C56.455791,77.678116 75.622437,77.762711 94.787148,77.606445 
	C98.206909,77.578568 99.682938,78.396858 99.244919,81.993095 
	C98.709244,86.391106 101.149109,92.092514 98.183968,94.910652 
	C95.480438,97.480164 89.912773,95.611992 85.612770,95.647942 
	C74.280632,95.742683 62.947117,95.657753 51.614273,95.688156 
	C44.096497,95.708328 42.003620,97.747063 42.003151,105.054428 
	C41.995529,224.216843 41.995544,343.379272 42.003071,462.541687 
	C42.003529,469.797638 44.239746,471.995819 51.578899,471.996338 
	C138.909119,472.002441 226.239334,472.002655 313.569550,471.995667 
	C320.874390,471.995087 323.043518,469.814301 323.054688,462.474884 
	C323.074738,449.308716 323.197266,436.140106 322.969452,422.977875 
	C322.908447,419.453003 324.082306,418.361725 327.393555,418.249481 
	C330.705444,418.137299 334.050507,417.716064 337.286194,417.001160 
	C340.587311,416.271820 341.136780,417.486450 341.110046,420.501526 
	C340.974243,435.832672 341.047638,451.165649 341.047791,466.997284 
z"/>
<path fill="#C9CDD2" opacity="1.000000" stroke="none" 
	d="
M222.113907,58.070358 
	C231.087326,58.070412 239.580185,58.212490 248.063934,57.996574 
	C251.204193,57.916653 251.996948,58.907715 251.941483,61.943989 
	C251.759109,71.928001 251.739120,81.920242 251.949585,91.903145 
	C252.017899,95.143471 250.826294,95.739075 247.909485,95.733887 
	C204.298233,95.656425 160.686737,95.651688 117.075523,95.741356 
	C114.000328,95.747681 113.088463,94.839462 113.141762,91.782646 
	C113.315834,81.798340 113.340034,71.806305 113.130577,61.823364 
	C113.062775,58.591923 114.225166,57.955963 117.157982,58.009350 
	C126.310005,58.175926 135.466995,58.073582 144.622055,58.069260 
	C153.455124,58.065086 154.435211,57.196617 155.604248,48.347462 
	C157.153824,36.617573 163.608475,28.642065 174.785675,25.218767 
	C185.823639,21.838120 195.475571,25.022285 203.191406,33.626064 
	C206.720703,37.561523 208.615356,42.285522 209.404068,47.528404 
	C210.956909,57.850723 211.272415,58.064205 222.113907,58.070358 
z"/>
<path fill="#A8ADB3" opacity="1.000000" stroke="none" 
	d="
M243.353485,357.623535 
	C219.646835,306.492859 246.417282,249.651779 299.978363,236.665543 
	C349.604309,224.633453 399.190765,259.873627 404.185333,310.723572 
	C408.238464,351.988739 383.100525,389.494751 343.541504,401.204681 
	C304.104431,412.878510 262.759399,394.992310 243.353485,357.623535 
z"/>
<path fill="#C6A894" opacity="1.000000" stroke="none" 
	d="
M323.055908,128.000000 
	C323.055298,119.833893 323.085602,112.167610 323.044647,104.501724 
	C323.009979,98.012604 320.828796,95.734962 314.403046,95.708069 
	C299.904388,95.647377 285.401947,95.515091 270.908356,95.792961 
	C266.611359,95.875343 265.394714,94.490891 265.804382,90.456505 
	C266.122681,87.322319 266.024139,84.120201 265.822906,80.966652 
	C265.649872,78.254372 266.772430,77.623146 269.289551,77.633118 
	C289.954376,77.715073 310.619995,77.615532 331.284546,77.726967 
	C337.803070,77.762123 341.024292,81.175491 341.029968,87.745750 
	C341.067810,131.409225 341.012360,175.072845 341.127014,218.736038 
	C341.135773,222.071960 340.165527,222.654373 337.155548,222.031265 
	C333.908447,221.359039 330.562927,220.861511 327.258240,220.849106 
	C323.654602,220.835571 322.973602,219.280777 322.986969,215.993378 
	C323.105652,186.829300 323.055908,157.664551 323.055908,128.000000 
z"/>
<path fill="#766559" opacity="1.000000" stroke="none" 
	d="
M472.509155,489.755310 
	C469.647614,490.367096 468.124268,488.802795 466.571167,487.248993 
	C446.217743,466.885712 425.846497,446.540222 405.509155,426.160858 
	C401.626404,422.270111 401.678864,420.042297 405.589813,416.065918 
	C409.207214,412.388000 412.913757,408.797668 416.524200,405.113068 
	C419.514038,402.061707 422.466553,401.796478 425.578186,404.909668 
	C446.284271,425.626190 466.989136,446.343994 487.726929,467.028778 
	C490.056305,469.352203 491.051819,471.960815 488.639160,474.465027 
	C483.578339,479.717773 478.873901,485.368652 472.509155,489.755310 
z"/>
<path fill="#A7ACB3" opacity="1.000000" stroke="none" 
	d="
M390.632629,388.574310 
	C392.701477,385.613159 394.472046,385.418793 396.579071,388.141907 
	C397.892059,389.838837 399.420532,391.483124 401.162323,392.711426 
	C405.348236,395.663269 404.252441,397.753113 401.124359,401.055206 
	C397.617676,404.757019 395.292664,405.008240 392.449371,400.851105 
	C391.895538,400.041290 391.058044,399.425690 390.352600,398.719330 
	C385.389008,393.749298 385.389099,393.749207 390.632629,388.574310 
z"/>
<path fill="#040304" opacity="1.000000" stroke="none" 
	d="
M115.423241,211.406067 
	C107.279297,175.391907 126.259315,144.896561 152.057114,132.884674 
	C178.630753,120.511559 204.247147,123.106636 226.744858,141.959778 
	C249.235580,160.807053 256.908020,185.709671 248.743973,213.881088 
	C240.662613,241.767242 221.210434,258.670258 192.350845,263.006927 
	C156.923172,268.330597 124.574120,246.303513 115.423241,211.406067 
z"/>
<path fill="#020202" opacity="1.000000" stroke="none" 
	d="
M178.000000,426.036743 
	C168.507263,426.036560 159.514328,426.072968 150.521881,426.022247 
	C145.251099,425.992523 142.019669,423.241150 142.061523,418.997009 
	C142.103043,414.787384 145.358307,412.053436 150.653015,412.049927 
	C191.786407,412.022583 232.919846,412.021088 274.053253,412.052765 
	C279.412384,412.056885 282.520996,414.783112 282.478119,419.129822 
	C282.435394,423.459290 279.353943,426.019623 273.922882,426.023834 
	C242.115265,426.048584 210.307632,426.036438 178.000000,426.036743 
z"/>
<path fill="#050505" opacity="1.000000" stroke="none" 
	d="
M128.109100,312.396271 
	C126.922913,316.864044 124.074821,318.190399 120.123459,318.158813 
	C110.291763,318.080170 100.458649,318.184906 90.626846,318.113373 
	C85.108276,318.073242 82.672073,315.762207 82.599678,310.233124 
	C82.468773,300.235901 82.466034,290.234436 82.601669,280.237366 
	C82.671776,275.069275 85.117989,272.498260 90.300186,272.397522 
	C100.295288,272.203156 110.298866,272.212982 120.294769,272.382721 
	C125.797707,272.476135 128.185806,275.006866 128.222260,280.465149 
	C128.292358,290.962524 128.193939,301.460999 128.109100,312.396271 
z"/>
<path fill="#040404" opacity="1.000000" stroke="none" 
	d="
M126.653717,439.421173 
	C124.619698,441.491577 122.468613,442.038269 120.025322,442.025208 
	C110.383751,441.973755 100.741409,442.052277 91.100014,441.986755 
	C85.106407,441.946045 82.648224,439.540649 82.585724,433.506470 
	C82.485886,423.865662 82.483551,414.222229 82.588493,404.581512 
	C82.653732,398.587891 85.145180,396.180817 91.163322,396.137970 
	C100.638451,396.070526 110.114693,396.076172 119.589920,396.136536 
	C125.691704,396.175415 128.175461,398.540588 128.226654,404.471924 
	C128.311325,414.279266 128.253387,424.087891 128.246338,433.895966 
	C128.245010,435.735962 128.138474,437.560059 126.653717,439.421173 
z"/>
<path fill="#040404" opacity="1.000000" stroke="none" 
	d="
M128.254730,354.004730 
	C128.253876,360.333252 128.330200,366.164337 128.229889,371.992310 
	C128.134338,377.543732 125.773155,379.974548 120.363571,380.017822 
	C110.370392,380.097748 100.375610,380.101135 90.382507,380.016602 
	C85.205528,379.972839 82.692642,377.596313 82.615540,372.375214 
	C82.465538,362.217224 82.462151,352.053680 82.619766,341.895905 
	C82.699036,336.787109 85.279755,334.342346 90.502090,334.278076 
	C100.494385,334.155090 110.490540,334.148010 120.482559,334.281952 
	C125.638618,334.351044 128.068161,336.896576 128.225372,342.013763 
	C128.342972,345.841187 128.252533,349.674957 128.254730,354.004730 
z"/>
<path fill="#050505" opacity="1.000000" stroke="none" 
	d="
M181.329895,42.070408 
	C186.622055,42.030403 189.950928,44.189381 191.259689,49.042496 
	C192.343063,53.059780 190.905411,56.333622 187.669724,58.577507 
	C184.403595,60.842503 180.754547,60.770935 177.396927,58.594341 
	C174.512634,56.724598 173.294769,53.784420 173.568008,50.451706 
	C173.937103,45.949928 176.720718,43.336777 181.329895,42.070408 
z"/>
<path fill="#030404" opacity="1.000000" stroke="none" 
	d="
M387.910492,288.181305 
	C409.923035,338.687225 374.543060,394.245178 320.362122,394.820465 
	C280.243622,395.246429 247.559753,365.145813 244.551529,323.656494 
	C241.843674,286.309845 268.311096,251.776428 307.634735,245.228607 
	C340.672211,239.727524 371.980927,256.526978 387.910492,288.181305 
z"/>
<path fill="#DB818F" opacity="1.000000" stroke="none" 
	d="
M129.018112,207.816681 
	C121.609879,176.119629 142.110092,145.666901 174.125992,140.290314 
	C204.577225,135.176468 233.890472,157.648132 237.225723,188.662811 
	C240.277145,217.038116 221.529510,243.016846 193.830063,248.796478 
	C166.113434,254.579712 138.512451,238.298553 129.934128,211.102371 
	C129.634018,210.150894 129.370041,209.188019 129.018112,207.816681 
z"/>
<path fill="#F0F1F2" opacity="1.000000" stroke="none" 
	d="
M111.920013,304.123383 
	C107.604347,304.126587 103.776367,304.005219 99.960785,304.170380 
	C97.505676,304.276642 96.111275,303.700653 96.561363,300.941284 
	C96.614174,300.617584 96.570732,300.277618 96.566940,299.945251 
	C96.396019,284.948395 96.705322,284.679443 111.652237,286.312469 
	C112.846214,286.442932 114.179451,286.327484 114.194321,287.939606 
	C114.241821,293.089661 114.197388,298.241425 114.074707,303.389832 
	C114.068596,303.646362 112.991417,303.877380 111.920013,304.123383 
z"/>
<path fill="#F2F3F4" opacity="1.000000" stroke="none" 
	d="
M96.575745,413.122070 
	C96.336327,410.158051 97.929916,410.189667 99.742851,410.096649 
	C114.493401,409.339844 114.411667,409.314850 114.316643,424.139038 
	C114.298210,427.015045 113.859993,428.405853 110.589539,428.051270 
	C106.016808,427.555450 99.879089,429.955811 97.247360,427.077545 
	C94.992271,424.611084 96.647423,418.569305 96.573738,414.108765 
	C96.570999,413.942993 96.573540,413.777161 96.575745,413.122070 
z"/>
<path fill="#F0F1F2" opacity="1.000000" stroke="none" 
	d="
M114.250458,357.026276 
	C114.250397,366.035980 114.250397,366.035980 105.746643,366.035980 
	C96.568985,366.035980 96.568985,366.035980 96.569000,356.685303 
	C96.569016,348.249146 96.569016,348.249146 104.861832,348.249146 
	C105.194443,348.249146 105.527054,348.249146 105.859665,348.249146 
	C114.250381,348.249146 114.250381,348.249146 114.250458,357.026276 
z"/>
<path fill="#B2D2EF" opacity="1.000000" stroke="none" 
	d="
M380.745819,316.373444 
	C381.309235,351.834869 355.198212,379.831238 321.096680,380.807404 
	C294.121857,381.579559 268.937714,363.470642 261.047974,337.628784 
	C252.971466,311.175171 263.528717,282.538422 286.737305,267.945862 
	C325.107635,243.820328 374.573486,267.364563 380.261597,312.459930 
	C380.407410,313.616119 380.565094,314.770844 380.745819,316.373444 
z"/>
<path fill="#030303" opacity="1.000000" stroke="none" 
	d="
M166.717010,236.962860 
	C162.155945,235.115189 161.820206,231.612991 161.829010,227.740143 
	C161.856308,215.716415 161.794693,215.716293 149.719421,215.593140 
	C142.067703,215.515106 140.011642,213.446320 139.996170,205.743866 
	C139.980438,197.919464 139.939087,190.094467 140.012955,182.270721 
	C140.066483,176.601257 142.583206,174.266006 148.275909,173.971939 
	C152.695724,173.743591 158.573120,175.964859 161.111740,172.967682 
	C163.278992,170.408966 161.750366,164.725296 161.868607,160.424271 
	C162.024399,154.757217 164.430847,152.230164 170.138275,152.153625 
	C178.294220,152.044235 186.453323,152.062653 194.609863,152.145813 
	C200.676315,152.207672 203.004822,154.637787 203.241501,160.587692 
	C203.412033,164.874603 201.422897,170.402603 204.036743,173.111038 
	C206.670349,175.839935 212.229446,173.810989 216.501129,173.975891 
	C222.534592,174.208847 225.009415,176.503174 225.055573,182.460358 
	C225.120071,190.783722 225.131836,199.108582 225.048325,207.431625 
	C224.993454,212.900833 222.621780,215.325333 217.166473,215.553268 
	C213.676346,215.699066 210.171127,215.700745 206.681076,215.559479 
	C204.128952,215.456192 203.067505,216.333359 203.186310,218.986374 
	C203.349991,222.641251 203.267914,226.310394 203.198822,229.971664 
	C203.111832,234.581039 200.678589,237.197784 196.096558,237.230240 
	C186.446671,237.298645 176.795105,237.128510 166.717010,236.962860 
z"/>
<path fill="#F1F2F3" opacity="1.000000" stroke="none" 
	d="
M177.051392,223.270874 
	C175.067871,219.036377 176.066849,214.713593 175.890579,210.460129 
	C175.628540,204.137207 173.416336,201.772522 167.116592,201.577179 
	C165.785995,201.535904 164.448105,201.641663 163.122299,201.551468 
	C160.172241,201.350800 155.566223,202.866867 154.635132,200.856384 
	C153.165253,197.682556 154.050461,193.402298 154.007095,189.589569 
	C153.981827,187.367493 155.746719,188.046219 156.909424,188.023987 
	C160.570648,187.953979 164.235855,188.070648 167.896149,187.979492 
	C173.006287,187.852264 175.588409,185.411179 175.815186,180.356232 
	C175.979172,176.700897 176.013748,173.023438 175.804749,169.373093 
	C175.649643,166.664200 176.691177,166.106674 179.233307,166.055527 
	C189.240631,165.854202 189.235504,165.756683 189.242157,175.753464 
	C189.243378,177.584061 189.104019,179.437836 189.339050,181.240555 
	C189.883957,185.420197 192.240662,187.858475 196.595047,187.975647 
	C199.423203,188.051773 202.305649,188.335892 205.074051,187.923965 
	C210.148270,187.168915 211.520950,189.024902 211.203873,194.029327 
	C210.727768,201.543823 211.080658,201.566177 203.483017,201.566452 
	C189.738022,201.566940 189.244110,202.065872 189.243759,215.949860 
	C189.243591,223.336731 189.243576,223.337479 182.039352,223.335098 
	C180.541046,223.334610 179.042755,223.326431 177.051392,223.270874 
z"/>
</svg>